#define max_toggled_alt_width 8
#define max_toggled_alt_height 8
static unsigned char max_toggled_alt_bits[] = {
   0x00, 0x00, 0x7e, 0x42, 0x42, 0x7e, 0x00, 0x00 };
